<?xml version="1.0" encoding="UTF-8" standalone="no"?><svg xmlns="http://www.w3.org/2000/svg" xmlns:xlink="http://www.w3.org/1999/xlink" contentScriptType="application/ecmascript" contentStyleType="text/css" height="581px" preserveAspectRatio="none" style="width:911px;height:581px;" version="1.1" viewBox="0 0 911 581" width="911px" zoomAndPan="magnify"><defs><filter height="300%" id="f17enkglwv484s" width="300%" x="-1" y="-1"><feGaussianBlur result="blurOut" stdDeviation="2.0"/><feColorMatrix in="blurOut" result="blurOut2" type="matrix" values="0 0 0 0 0 0 0 0 0 0 0 0 0 0 0 0 0 0 .4 0"/><feOffset dx="4.0" dy="4.0" in="blurOut2" result="blurOut3"/><feBlend in="SourceGraphic" in2="blurOut3" mode="normal"/></filter></defs><g><text fill="#000000" font-family="sans-serif" font-size="14" font-weight="bold" lengthAdjust="spacingAndGlyphs" textLength="244" x="334.75" y="22.9951">Task 3 - Static Web Application</text><rect fill="#F5F5F5" height="536.0547" style="stroke: #A80036; stroke-width: 1.0;" width="77" x="4" y="34.2969"/><text fill="#000000" font-family="sans-serif" font-size="13" font-weight="bold" lengthAdjust="spacingAndGlyphs" textLength="71" x="7" y="46.3638">Database</text><rect fill="#E6E6FA" height="536.0547" style="stroke: #A80036; stroke-width: 1.0;" width="324.5" x="83" y="34.2969"/><text fill="#000000" font-family="sans-serif" font-size="13" font-weight="bold" lengthAdjust="spacingAndGlyphs" textLength="136" x="177.25" y="46.3638">Data Access Layer</text><rect fill="#FAF0E6" height="536.0547" style="stroke: #A80036; stroke-width: 1.0;" width="122" x="409.5" y="34.2969"/><text fill="#000000" font-family="sans-serif" font-size="13" font-weight="bold" lengthAdjust="spacingAndGlyphs" textLength="116" x="412.5" y="46.3638">Domain Entities</text><line style="stroke: #A80036; stroke-width: 1.0; stroke-dasharray: 5.0,5.0;" x1="42.5" x2="42.5" y1="116.5938" y2="484.0547"/><line style="stroke: #A80036; stroke-width: 1.0; stroke-dasharray: 5.0,5.0;" x1="153" x2="153" y1="116.5938" y2="484.0547"/><line style="stroke: #A80036; stroke-width: 1.0; stroke-dasharray: 5.0,5.0;" x1="336.5" x2="336.5" y1="116.5938" y2="484.0547"/><line style="stroke: #A80036; stroke-width: 1.0; stroke-dasharray: 5.0,5.0;" x1="470" x2="470" y1="116.5938" y2="484.0547"/><line style="stroke: #A80036; stroke-width: 1.0; stroke-dasharray: 5.0,5.0;" x1="595.5" x2="595.5" y1="116.5938" y2="484.0547"/><line style="stroke: #A80036; stroke-width: 1.0; stroke-dasharray: 5.0,5.0;" x1="780.5" x2="780.5" y1="116.5938" y2="484.0547"/><line style="stroke: #A80036; stroke-width: 1.0; stroke-dasharray: 5.0,5.0;" x1="886.5" x2="886.5" y1="116.5938" y2="484.0547"/><text fill="#000000" font-family="sans-serif" font-size="14" lengthAdjust="spacingAndGlyphs" textLength="46" x="16.5" y="113.292">MySQL</text><path d="M24.5,64.2969 C24.5,54.2969 42.5,54.2969 42.5,54.2969 C42.5,54.2969 60.5,54.2969 60.5,64.2969 L60.5,90.2969 C60.5,100.2969 42.5,100.2969 42.5,100.2969 C42.5,100.2969 24.5,100.2969 24.5,90.2969 L24.5,64.2969 " fill="#FEFECE" filter="url(#f17enkglwv484s)" style="stroke: #000000; stroke-width: 1.5;"/><path d="M24.5,64.2969 C24.5,74.2969 42.5,74.2969 42.5,74.2969 C42.5,74.2969 60.5,74.2969 60.5,64.2969 " fill="none" style="stroke: #000000; stroke-width: 1.5;"/><text fill="#000000" font-family="sans-serif" font-size="14" lengthAdjust="spacingAndGlyphs" textLength="46" x="16.5" y="496.0498">MySQL</text><path d="M24.5,509.3516 C24.5,499.3516 42.5,499.3516 42.5,499.3516 C42.5,499.3516 60.5,499.3516 60.5,509.3516 L60.5,535.3516 C60.5,545.3516 42.5,545.3516 42.5,545.3516 C42.5,545.3516 24.5,545.3516 24.5,535.3516 L24.5,509.3516 " fill="#FEFECE" filter="url(#f17enkglwv484s)" style="stroke: #000000; stroke-width: 1.5;"/><path d="M24.5,509.3516 C24.5,519.3516 42.5,519.3516 42.5,519.3516 C42.5,519.3516 60.5,519.3516 60.5,509.3516 " fill="none" style="stroke: #000000; stroke-width: 1.5;"/><text fill="#000000" font-family="sans-serif" font-size="14" lengthAdjust="spacingAndGlyphs" textLength="127" x="87" y="113.292">db-data-provider%</text><ellipse cx="153.5" cy="84.2969" fill="#FEFECE" filter="url(#f17enkglwv484s)" rx="12" ry="12" style="stroke: #A80036; stroke-width: 2.0;"/><line style="stroke: #A80036; stroke-width: 2.0;" x1="141.5" x2="165.5" y1="98.2969" y2="98.2969"/><text fill="#000000" font-family="sans-serif" font-size="14" lengthAdjust="spacingAndGlyphs" textLength="127" x="87" y="496.0498">db-data-provider%</text><ellipse cx="153.5" cy="515.3516" fill="#FEFECE" filter="url(#f17enkglwv484s)" rx="12" ry="12" style="stroke: #A80036; stroke-width: 2.0;"/><line style="stroke: #A80036; stroke-width: 2.0;" x1="141.5" x2="165.5" y1="529.3516" y2="529.3516"/><text fill="#000000" font-family="sans-serif" font-size="14" lengthAdjust="spacingAndGlyphs" textLength="128" x="269.5" y="113.292">data-provider&lt;%&gt;</text><path d="M316,72.2969 L316,96.2969 M316,84.2969 L333,84.2969 " fill="#FEFECE" filter="url(#f17enkglwv484s)" style="stroke: #A80036; stroke-width: 2.0;"/><ellipse cx="345" cy="84.2969" fill="#FEFECE" filter="url(#f17enkglwv484s)" rx="12" ry="12" style="stroke: #A80036; stroke-width: 2.0;"/><text fill="#000000" font-family="sans-serif" font-size="14" lengthAdjust="spacingAndGlyphs" textLength="128" x="269.5" y="496.0498">data-provider&lt;%&gt;</text><path d="M316,503.3516 L316,527.3516 M316,515.3516 L333,515.3516 " fill="#FEFECE" filter="url(#f17enkglwv484s)" style="stroke: #A80036; stroke-width: 2.0;"/><ellipse cx="345" cy="515.3516" fill="#FEFECE" filter="url(#f17enkglwv484s)" rx="12" ry="12" style="stroke: #A80036; stroke-width: 2.0;"/><text fill="#000000" font-family="sans-serif" font-size="14" lengthAdjust="spacingAndGlyphs" textLength="37" x="449" y="113.292">route</text><ellipse cx="470.5" cy="84.2969" fill="#FEFECE" filter="url(#f17enkglwv484s)" rx="12" ry="12" style="stroke: #A80036; stroke-width: 2.0;"/><line style="stroke: #A80036; stroke-width: 2.0;" x1="458.5" x2="482.5" y1="98.2969" y2="98.2969"/><text fill="#000000" font-family="sans-serif" font-size="14" lengthAdjust="spacingAndGlyphs" textLength="37" x="449" y="496.0498">route</text><ellipse cx="470.5" cy="515.3516" fill="#FEFECE" filter="url(#f17enkglwv484s)" rx="12" ry="12" style="stroke: #A80036; stroke-width: 2.0;"/><line style="stroke: #A80036; stroke-width: 2.0;" x1="458.5" x2="482.5" y1="529.3516" y2="529.3516"/><text fill="#000000" font-family="sans-serif" font-size="14" lengthAdjust="spacingAndGlyphs" textLength="110" x="537.5" y="113.292">request handler</text><ellipse cx="595.5" cy="84.2969" fill="#FEFECE" filter="url(#f17enkglwv484s)" rx="12" ry="12" style="stroke: #A80036; stroke-width: 2.0;"/><line style="stroke: #A80036; stroke-width: 2.0;" x1="583.5" x2="607.5" y1="98.2969" y2="98.2969"/><text fill="#000000" font-family="sans-serif" font-size="14" lengthAdjust="spacingAndGlyphs" textLength="110" x="537.5" y="496.0498">request handler</text><ellipse cx="595.5" cy="515.3516" fill="#FEFECE" filter="url(#f17enkglwv484s)" rx="12" ry="12" style="stroke: #A80036; stroke-width: 2.0;"/><line style="stroke: #A80036; stroke-width: 2.0;" x1="583.5" x2="607.5" y1="529.3516" y2="529.3516"/><text fill="#000000" font-family="sans-serif" font-size="14" lengthAdjust="spacingAndGlyphs" textLength="66" x="744.5" y="113.292">Web form</text><path d="M760,72.2969 L760,96.2969 M760,84.2969 L777,84.2969 " fill="#FEFECE" filter="url(#f17enkglwv484s)" style="stroke: #A80036; stroke-width: 2.0;"/><ellipse cx="789" cy="84.2969" fill="#FEFECE" filter="url(#f17enkglwv484s)" rx="12" ry="12" style="stroke: #A80036; stroke-width: 2.0;"/><text fill="#000000" font-family="sans-serif" font-size="14" lengthAdjust="spacingAndGlyphs" textLength="66" x="744.5" y="496.0498">Web form</text><path d="M760,503.3516 L760,527.3516 M760,515.3516 L777,515.3516 " fill="#FEFECE" filter="url(#f17enkglwv484s)" style="stroke: #A80036; stroke-width: 2.0;"/><ellipse cx="789" cy="515.3516" fill="#FEFECE" filter="url(#f17enkglwv484s)" rx="12" ry="12" style="stroke: #A80036; stroke-width: 2.0;"/><text fill="#000000" font-family="sans-serif" font-size="14" lengthAdjust="spacingAndGlyphs" textLength="32" x="867.5" y="113.292">User</text><ellipse cx="886.5" cy="43.2969" fill="#FEFECE" filter="url(#f17enkglwv484s)" rx="8" ry="8" style="stroke: #A80036; stroke-width: 2.0;"/><path d="M886.5,51.2969 L886.5,78.2969 M873.5,59.2969 L899.5,59.2969 M886.5,78.2969 L873.5,93.2969 M886.5,78.2969 L899.5,93.2969 " fill="#FEFECE" filter="url(#f17enkglwv484s)" style="stroke: #A80036; stroke-width: 2.0;"/><text fill="#000000" font-family="sans-serif" font-size="14" lengthAdjust="spacingAndGlyphs" textLength="32" x="867.5" y="496.0498">User</text><ellipse cx="886.5" cy="509.3516" fill="#FEFECE" filter="url(#f17enkglwv484s)" rx="8" ry="8" style="stroke: #A80036; stroke-width: 2.0;"/><path d="M886.5,517.3516 L886.5,544.3516 M873.5,525.3516 L899.5,525.3516 M886.5,544.3516 L873.5,559.3516 M886.5,544.3516 L899.5,559.3516 " fill="#FEFECE" filter="url(#f17enkglwv484s)" style="stroke: #A80036; stroke-width: 2.0;"/><polygon fill="#A80036" points="791.5,143.5938,781.5,147.5938,791.5,151.5938,787.5,147.5938" style="stroke: #A80036; stroke-width: 1.0;"/><line style="stroke: #A80036; stroke-width: 1.0;" x1="785.5" x2="885.5" y1="147.5938" y2="147.5938"/><text fill="#000000" font-family="sans-serif" font-size="13" lengthAdjust="spacingAndGlyphs" textLength="82" x="797.5" y="142.6606">request data</text><polygon fill="#A80036" points="606.5,172.7266,596.5,176.7266,606.5,180.7266,602.5,176.7266" style="stroke: #A80036; stroke-width: 1.0;"/><line style="stroke: #A80036; stroke-width: 1.0;" x1="600.5" x2="779.5" y1="176.7266" y2="176.7266"/><text fill="#000000" font-family="sans-serif" font-size="13" lengthAdjust="spacingAndGlyphs" textLength="53" x="612.5" y="171.7935">get/post</text><polygon fill="#A80036" points="347.5,201.8594,337.5,205.8594,347.5,209.8594,343.5,205.8594" style="stroke: #A80036; stroke-width: 1.0;"/><line style="stroke: #A80036; stroke-width: 1.0;" x1="341.5" x2="594.5" y1="205.8594" y2="205.8594"/><text fill="#000000" font-family="sans-serif" font-size="13" lengthAdjust="spacingAndGlyphs" textLength="54" x="353.5" y="200.9263">get data</text><polygon fill="#A80036" points="164.5,230.9922,154.5,234.9922,164.5,238.9922,160.5,234.9922" style="stroke: #A80036; stroke-width: 1.0;"/><line style="stroke: #A80036; stroke-width: 1.0;" x1="158.5" x2="335.5" y1="234.9922" y2="234.9922"/><text fill="#000000" font-family="sans-serif" font-size="13" lengthAdjust="spacingAndGlyphs" textLength="159" x="170.5" y="230.0591">get data implementation</text><polygon fill="#A80036" points="53.5,260.125,43.5,264.125,53.5,268.125,49.5,264.125" style="stroke: #A80036; stroke-width: 1.0;"/><line style="stroke: #A80036; stroke-width: 1.0;" x1="47.5" x2="152.5" y1="264.125" y2="264.125"/><text fill="#000000" font-family="sans-serif" font-size="13" lengthAdjust="spacingAndGlyphs" textLength="69" x="59.5" y="259.1919">query data</text><polygon fill="#A80036" points="141.5,289.2578,151.5,293.2578,141.5,297.2578,145.5,293.2578" style="stroke: #A80036; stroke-width: 1.0;"/><line style="stroke: #A80036; stroke-width: 1.0; stroke-dasharray: 2.0,2.0;" x1="42.5" x2="147.5" y1="293.2578" y2="293.2578"/><text fill="#000000" font-family="sans-serif" font-size="13" lengthAdjust="spacingAndGlyphs" textLength="78" x="49.5" y="288.3247">raw DB data</text><polygon fill="#A80036" points="458.5,318.3906,468.5,322.3906,458.5,326.3906,462.5,322.3906" style="stroke: #A80036; stroke-width: 1.0;"/><line style="stroke: #A80036; stroke-width: 1.0;" x1="153.5" x2="464.5" y1="322.3906" y2="322.3906"/><text fill="#000000" font-family="sans-serif" font-size="13" lengthAdjust="spacingAndGlyphs" textLength="131" x="160.5" y="317.4575">create from DB data</text><polygon fill="#A80036" points="164.5,332.5234,154.5,336.5234,164.5,340.5234,160.5,336.5234" style="stroke: #A80036; stroke-width: 1.0;"/><line style="stroke: #A80036; stroke-width: 1.0; stroke-dasharray: 2.0,2.0;" x1="158.5" x2="469.5" y1="336.5234" y2="336.5234"/><polygon fill="#A80036" points="324.5,361.5234,334.5,365.5234,324.5,369.5234,328.5,365.5234" style="stroke: #A80036; stroke-width: 1.0;"/><line style="stroke: #A80036; stroke-width: 1.0; stroke-dasharray: 2.0,2.0;" x1="153.5" x2="330.5" y1="365.5234" y2="365.5234"/><text fill="#000000" font-family="sans-serif" font-size="13" lengthAdjust="spacingAndGlyphs" textLength="34" x="160.5" y="360.5903">route</text><polygon fill="#A80036" points="583.5,390.6563,593.5,394.6563,583.5,398.6563,587.5,394.6563" style="stroke: #A80036; stroke-width: 1.0;"/><line style="stroke: #A80036; stroke-width: 1.0; stroke-dasharray: 2.0,2.0;" x1="336.5" x2="589.5" y1="394.6563" y2="394.6563"/><text fill="#000000" font-family="sans-serif" font-size="13" lengthAdjust="spacingAndGlyphs" textLength="34" x="343.5" y="389.7231">route</text><line style="stroke: #A80036; stroke-width: 1.0;" x1="595.5" x2="637.5" y1="423.9219" y2="423.9219"/><line style="stroke: #A80036; stroke-width: 1.0;" x1="637.5" x2="637.5" y1="423.9219" y2="436.9219"/><line style="stroke: #A80036; stroke-width: 1.0;" x1="596.5" x2="637.5" y1="436.9219" y2="436.9219"/><polygon fill="#A80036" points="606.5,432.9219,596.5,436.9219,606.5,440.9219,602.5,436.9219" style="stroke: #A80036; stroke-width: 1.0;"/><text fill="#000000" font-family="sans-serif" font-size="13" lengthAdjust="spacingAndGlyphs" textLength="171" x="602.5" y="418.856">create new form from data</text><polygon fill="#A80036" points="768.5,461.9219,778.5,465.9219,768.5,469.9219,772.5,465.9219" style="stroke: #A80036; stroke-width: 1.0;"/><line style="stroke: #A80036; stroke-width: 1.0; stroke-dasharray: 2.0,2.0;" x1="595.5" x2="774.5" y1="465.9219" y2="465.9219"/><text fill="#000000" font-family="sans-serif" font-size="13" lengthAdjust="spacingAndGlyphs" textLength="71" x="602.5" y="460.9888">render new</text><!--
@startuml
box "Database" #WhiteSmoke
database MySQL
end box
box "Data Access Layer" #Lavender
entity "db-data-provider%"
boundary "data-provider<%>"
end box
box "Domain Entities" #Linen
entity route
end box
entity "request handler"
boundary "Web form"
actor User
title Task 3 - Static Web Application
User -> "Web form": request data
"Web form" -> "request handler": get/post
"request handler" -> "data-provider<%>": get data
"data-provider<%>" -> "db-data-provider%": get data implementation
"db-data-provider%" -> MySQL: query data
"db-data-provider%" <- - MySQL: raw DB data
"db-data-provider%" -> route: create from DB data
"db-data-provider%" <- - route
"data-provider<%>" <- - "db-data-provider%": route
"request handler" <- - "data-provider<%>": route
"request handler" -> "request handler": create new form from data
"request handler" - -> "Web form": render new
@enduml

PlantUML version 1.2017.20beta4(Unknown compile time)
(GPL source distribution)
Java Runtime: Java(TM) SE Runtime Environment
JVM: Java HotSpot(TM) 64-Bit Server VM
Java Version: 1.7.0_25-b15
Operating System: Linux
Default Encoding: UTF-8
Language: en
Country: US
--></g></svg>