<?xml version="1.0" encoding="UTF-8" standalone="no"?><svg xmlns="http://www.w3.org/2000/svg" xmlns:xlink="http://www.w3.org/1999/xlink" contentScriptType="application/ecmascript" contentStyleType="text/css" height="523px" preserveAspectRatio="none" style="width:776px;height:523px;" version="1.1" viewBox="0 0 776 523" width="776px" zoomAndPan="magnify"><defs><filter height="300%" id="f1t2y10k56zpmt" width="300%" x="-1" y="-1"><feGaussianBlur result="blurOut" stdDeviation="2.0"/><feColorMatrix in="blurOut" result="blurOut2" type="matrix" values="0 0 0 0 0 0 0 0 0 0 0 0 0 0 0 0 0 0 .4 0"/><feOffset dx="4.0" dy="4.0" in="blurOut2" result="blurOut3"/><feBlend in="SourceGraphic" in2="blurOut3" mode="normal"/></filter></defs><g><text fill="#000000" font-family="sans-serif" font-size="14" font-weight="bold" lengthAdjust="spacingAndGlyphs" textLength="225" x="276.75" y="22.9951">Task 2 - Desktop Application</text><rect fill="#F5F5F5" height="477.7891" style="stroke: #A80036; stroke-width: 1.0;" width="77" x="4" y="34.2969"/><text fill="#000000" font-family="sans-serif" font-size="13" font-weight="bold" lengthAdjust="spacingAndGlyphs" textLength="71" x="7" y="46.3638">Database</text><rect fill="#E6E6FA" height="477.7891" style="stroke: #A80036; stroke-width: 1.0;" width="324.5" x="83" y="34.2969"/><text fill="#000000" font-family="sans-serif" font-size="13" font-weight="bold" lengthAdjust="spacingAndGlyphs" textLength="136" x="177.25" y="46.3638">Data Access Layer</text><rect fill="#FAF0E6" height="477.7891" style="stroke: #A80036; stroke-width: 1.0;" width="122" x="409.5" y="34.2969"/><text fill="#000000" font-family="sans-serif" font-size="13" font-weight="bold" lengthAdjust="spacingAndGlyphs" textLength="116" x="412.5" y="46.3638">Domain Entities</text><line style="stroke: #A80036; stroke-width: 1.0; stroke-dasharray: 5.0,5.0;" x1="42.5" x2="42.5" y1="116.5938" y2="425.7891"/><line style="stroke: #A80036; stroke-width: 1.0; stroke-dasharray: 5.0,5.0;" x1="153" x2="153" y1="116.5938" y2="425.7891"/><line style="stroke: #A80036; stroke-width: 1.0; stroke-dasharray: 5.0,5.0;" x1="336.5" x2="336.5" y1="116.5938" y2="425.7891"/><line style="stroke: #A80036; stroke-width: 1.0; stroke-dasharray: 5.0,5.0;" x1="470" x2="470" y1="116.5938" y2="425.7891"/><line style="stroke: #A80036; stroke-width: 1.0; stroke-dasharray: 5.0,5.0;" x1="578.5" x2="578.5" y1="116.5938" y2="425.7891"/><line style="stroke: #A80036; stroke-width: 1.0; stroke-dasharray: 5.0,5.0;" x1="751.5" x2="751.5" y1="116.5938" y2="425.7891"/><text fill="#000000" font-family="sans-serif" font-size="14" lengthAdjust="spacingAndGlyphs" textLength="46" x="16.5" y="113.292">MySQL</text><path d="M24.5,64.2969 C24.5,54.2969 42.5,54.2969 42.5,54.2969 C42.5,54.2969 60.5,54.2969 60.5,64.2969 L60.5,90.2969 C60.5,100.2969 42.5,100.2969 42.5,100.2969 C42.5,100.2969 24.5,100.2969 24.5,90.2969 L24.5,64.2969 " fill="#FEFECE" filter="url(#f1t2y10k56zpmt)" style="stroke: #000000; stroke-width: 1.5;"/><path d="M24.5,64.2969 C24.5,74.2969 42.5,74.2969 42.5,74.2969 C42.5,74.2969 60.5,74.2969 60.5,64.2969 " fill="none" style="stroke: #000000; stroke-width: 1.5;"/><text fill="#000000" font-family="sans-serif" font-size="14" lengthAdjust="spacingAndGlyphs" textLength="46" x="16.5" y="437.7842">MySQL</text><path d="M24.5,451.0859 C24.5,441.0859 42.5,441.0859 42.5,441.0859 C42.5,441.0859 60.5,441.0859 60.5,451.0859 L60.5,477.0859 C60.5,487.0859 42.5,487.0859 42.5,487.0859 C42.5,487.0859 24.5,487.0859 24.5,477.0859 L24.5,451.0859 " fill="#FEFECE" filter="url(#f1t2y10k56zpmt)" style="stroke: #000000; stroke-width: 1.5;"/><path d="M24.5,451.0859 C24.5,461.0859 42.5,461.0859 42.5,461.0859 C42.5,461.0859 60.5,461.0859 60.5,451.0859 " fill="none" style="stroke: #000000; stroke-width: 1.5;"/><text fill="#000000" font-family="sans-serif" font-size="14" lengthAdjust="spacingAndGlyphs" textLength="127" x="87" y="113.292">db-data-provider%</text><ellipse cx="153.5" cy="84.2969" fill="#FEFECE" filter="url(#f1t2y10k56zpmt)" rx="12" ry="12" style="stroke: #A80036; stroke-width: 2.0;"/><line style="stroke: #A80036; stroke-width: 2.0;" x1="141.5" x2="165.5" y1="98.2969" y2="98.2969"/><text fill="#000000" font-family="sans-serif" font-size="14" lengthAdjust="spacingAndGlyphs" textLength="127" x="87" y="437.7842">db-data-provider%</text><ellipse cx="153.5" cy="457.0859" fill="#FEFECE" filter="url(#f1t2y10k56zpmt)" rx="12" ry="12" style="stroke: #A80036; stroke-width: 2.0;"/><line style="stroke: #A80036; stroke-width: 2.0;" x1="141.5" x2="165.5" y1="471.0859" y2="471.0859"/><text fill="#000000" font-family="sans-serif" font-size="14" lengthAdjust="spacingAndGlyphs" textLength="128" x="269.5" y="113.292">data-provider&lt;%&gt;</text><path d="M316,72.2969 L316,96.2969 M316,84.2969 L333,84.2969 " fill="#FEFECE" filter="url(#f1t2y10k56zpmt)" style="stroke: #A80036; stroke-width: 2.0;"/><ellipse cx="345" cy="84.2969" fill="#FEFECE" filter="url(#f1t2y10k56zpmt)" rx="12" ry="12" style="stroke: #A80036; stroke-width: 2.0;"/><text fill="#000000" font-family="sans-serif" font-size="14" lengthAdjust="spacingAndGlyphs" textLength="128" x="269.5" y="437.7842">data-provider&lt;%&gt;</text><path d="M316,445.0859 L316,469.0859 M316,457.0859 L333,457.0859 " fill="#FEFECE" filter="url(#f1t2y10k56zpmt)" style="stroke: #A80036; stroke-width: 2.0;"/><ellipse cx="345" cy="457.0859" fill="#FEFECE" filter="url(#f1t2y10k56zpmt)" rx="12" ry="12" style="stroke: #A80036; stroke-width: 2.0;"/><text fill="#000000" font-family="sans-serif" font-size="14" lengthAdjust="spacingAndGlyphs" textLength="37" x="449" y="113.292">route</text><ellipse cx="470.5" cy="84.2969" fill="#FEFECE" filter="url(#f1t2y10k56zpmt)" rx="12" ry="12" style="stroke: #A80036; stroke-width: 2.0;"/><line style="stroke: #A80036; stroke-width: 2.0;" x1="458.5" x2="482.5" y1="98.2969" y2="98.2969"/><text fill="#000000" font-family="sans-serif" font-size="14" lengthAdjust="spacingAndGlyphs" textLength="37" x="449" y="437.7842">route</text><ellipse cx="470.5" cy="457.0859" fill="#FEFECE" filter="url(#f1t2y10k56zpmt)" rx="12" ry="12" style="stroke: #A80036; stroke-width: 2.0;"/><line style="stroke: #A80036; stroke-width: 2.0;" x1="458.5" x2="482.5" y1="471.0859" y2="471.0859"/><text fill="#000000" font-family="sans-serif" font-size="14" lengthAdjust="spacingAndGlyphs" textLength="76" x="537.5" y="113.292">GUI control</text><path d="M558,72.2969 L558,96.2969 M558,84.2969 L575,84.2969 " fill="#FEFECE" filter="url(#f1t2y10k56zpmt)" style="stroke: #A80036; stroke-width: 2.0;"/><ellipse cx="587" cy="84.2969" fill="#FEFECE" filter="url(#f1t2y10k56zpmt)" rx="12" ry="12" style="stroke: #A80036; stroke-width: 2.0;"/><text fill="#000000" font-family="sans-serif" font-size="14" lengthAdjust="spacingAndGlyphs" textLength="76" x="537.5" y="437.7842">GUI control</text><path d="M558,445.0859 L558,469.0859 M558,457.0859 L575,457.0859 " fill="#FEFECE" filter="url(#f1t2y10k56zpmt)" style="stroke: #A80036; stroke-width: 2.0;"/><ellipse cx="587" cy="457.0859" fill="#FEFECE" filter="url(#f1t2y10k56zpmt)" rx="12" ry="12" style="stroke: #A80036; stroke-width: 2.0;"/><text fill="#000000" font-family="sans-serif" font-size="14" lengthAdjust="spacingAndGlyphs" textLength="32" x="732.5" y="113.292">User</text><ellipse cx="751.5" cy="43.2969" fill="#FEFECE" filter="url(#f1t2y10k56zpmt)" rx="8" ry="8" style="stroke: #A80036; stroke-width: 2.0;"/><path d="M751.5,51.2969 L751.5,78.2969 M738.5,59.2969 L764.5,59.2969 M751.5,78.2969 L738.5,93.2969 M751.5,78.2969 L764.5,93.2969 " fill="#FEFECE" filter="url(#f1t2y10k56zpmt)" style="stroke: #A80036; stroke-width: 2.0;"/><text fill="#000000" font-family="sans-serif" font-size="14" lengthAdjust="spacingAndGlyphs" textLength="32" x="732.5" y="437.7842">User</text><ellipse cx="751.5" cy="451.0859" fill="#FEFECE" filter="url(#f1t2y10k56zpmt)" rx="8" ry="8" style="stroke: #A80036; stroke-width: 2.0;"/><path d="M751.5,459.0859 L751.5,486.0859 M738.5,467.0859 L764.5,467.0859 M751.5,486.0859 L738.5,501.0859 M751.5,486.0859 L764.5,501.0859 " fill="#FEFECE" filter="url(#f1t2y10k56zpmt)" style="stroke: #A80036; stroke-width: 2.0;"/><polygon fill="#A80036" points="589.5,143.5938,579.5,147.5938,589.5,151.5938,585.5,147.5938" style="stroke: #A80036; stroke-width: 1.0;"/><line style="stroke: #A80036; stroke-width: 1.0;" x1="583.5" x2="750.5" y1="147.5938" y2="147.5938"/><text fill="#000000" font-family="sans-serif" font-size="13" lengthAdjust="spacingAndGlyphs" textLength="82" x="595.5" y="142.6606">request data</text><polygon fill="#A80036" points="347.5,172.7266,337.5,176.7266,347.5,180.7266,343.5,176.7266" style="stroke: #A80036; stroke-width: 1.0;"/><line style="stroke: #A80036; stroke-width: 1.0;" x1="341.5" x2="577.5" y1="176.7266" y2="176.7266"/><text fill="#000000" font-family="sans-serif" font-size="13" lengthAdjust="spacingAndGlyphs" textLength="54" x="353.5" y="171.7935">get data</text><polygon fill="#A80036" points="164.5,201.8594,154.5,205.8594,164.5,209.8594,160.5,205.8594" style="stroke: #A80036; stroke-width: 1.0;"/><line style="stroke: #A80036; stroke-width: 1.0;" x1="158.5" x2="335.5" y1="205.8594" y2="205.8594"/><text fill="#000000" font-family="sans-serif" font-size="13" lengthAdjust="spacingAndGlyphs" textLength="159" x="170.5" y="200.9263">get data implementation</text><polygon fill="#A80036" points="53.5,230.9922,43.5,234.9922,53.5,238.9922,49.5,234.9922" style="stroke: #A80036; stroke-width: 1.0;"/><line style="stroke: #A80036; stroke-width: 1.0;" x1="47.5" x2="152.5" y1="234.9922" y2="234.9922"/><text fill="#000000" font-family="sans-serif" font-size="13" lengthAdjust="spacingAndGlyphs" textLength="69" x="59.5" y="230.0591">query data</text><polygon fill="#A80036" points="141.5,260.125,151.5,264.125,141.5,268.125,145.5,264.125" style="stroke: #A80036; stroke-width: 1.0;"/><line style="stroke: #A80036; stroke-width: 1.0; stroke-dasharray: 2.0,2.0;" x1="42.5" x2="147.5" y1="264.125" y2="264.125"/><text fill="#000000" font-family="sans-serif" font-size="13" lengthAdjust="spacingAndGlyphs" textLength="78" x="49.5" y="259.1919">raw DB data</text><polygon fill="#A80036" points="458.5,289.2578,468.5,293.2578,458.5,297.2578,462.5,293.2578" style="stroke: #A80036; stroke-width: 1.0;"/><line style="stroke: #A80036; stroke-width: 1.0;" x1="153.5" x2="464.5" y1="293.2578" y2="293.2578"/><text fill="#000000" font-family="sans-serif" font-size="13" lengthAdjust="spacingAndGlyphs" textLength="131" x="160.5" y="288.3247">create from DB data</text><polygon fill="#A80036" points="164.5,303.3906,154.5,307.3906,164.5,311.3906,160.5,307.3906" style="stroke: #A80036; stroke-width: 1.0;"/><line style="stroke: #A80036; stroke-width: 1.0; stroke-dasharray: 2.0,2.0;" x1="158.5" x2="469.5" y1="307.3906" y2="307.3906"/><polygon fill="#A80036" points="324.5,332.3906,334.5,336.3906,324.5,340.3906,328.5,336.3906" style="stroke: #A80036; stroke-width: 1.0;"/><line style="stroke: #A80036; stroke-width: 1.0; stroke-dasharray: 2.0,2.0;" x1="153.5" x2="330.5" y1="336.3906" y2="336.3906"/><text fill="#000000" font-family="sans-serif" font-size="13" lengthAdjust="spacingAndGlyphs" textLength="34" x="160.5" y="331.4575">route</text><polygon fill="#A80036" points="566.5,361.5234,576.5,365.5234,566.5,369.5234,570.5,365.5234" style="stroke: #A80036; stroke-width: 1.0;"/><line style="stroke: #A80036; stroke-width: 1.0; stroke-dasharray: 2.0,2.0;" x1="336.5" x2="572.5" y1="365.5234" y2="365.5234"/><text fill="#000000" font-family="sans-serif" font-size="13" lengthAdjust="spacingAndGlyphs" textLength="34" x="343.5" y="360.5903">route</text><line style="stroke: #A80036; stroke-width: 1.0;" x1="578.5" x2="620.5" y1="394.7891" y2="394.7891"/><line style="stroke: #A80036; stroke-width: 1.0;" x1="620.5" x2="620.5" y1="394.7891" y2="407.7891"/><line style="stroke: #A80036; stroke-width: 1.0;" x1="579.5" x2="620.5" y1="407.7891" y2="407.7891"/><polygon fill="#A80036" points="589.5,403.7891,579.5,407.7891,589.5,411.7891,585.5,407.7891" style="stroke: #A80036; stroke-width: 1.0;"/><text fill="#000000" font-family="sans-serif" font-size="13" lengthAdjust="spacingAndGlyphs" textLength="159" x="585.5" y="389.7231">display route information</text><!--
@startuml
box "Database" #WhiteSmoke
database MySQL
end box
box "Data Access Layer" #Lavender
entity "db-data-provider%"
boundary "data-provider<%>"
end box
box "Domain Entities" #Linen
entity route
end box
boundary "GUI control"
actor User
title Task 2 - Desktop Application
User -> "GUI control": request data
"GUI control" -> "data-provider<%>": get data
"data-provider<%>" -> "db-data-provider%": get data implementation
"db-data-provider%" -> MySQL: query data
"db-data-provider%" <- - MySQL: raw DB data
"db-data-provider%" -> route: create from DB data
"db-data-provider%" <- - route
"data-provider<%>" <- - "db-data-provider%": route
"GUI control" <- - "data-provider<%>": route
"GUI control" -> "GUI control": display route information
@enduml

PlantUML version 1.2017.20beta4(Unknown compile time)
(GPL source distribution)
Java Runtime: Java(TM) SE Runtime Environment
JVM: Java HotSpot(TM) 64-Bit Server VM
Java Version: 1.7.0_25-b15
Operating System: Linux
Default Encoding: UTF-8
Language: en
Country: US
--></g></svg>